<!DOCTYPE svg PUBLIC "-//W3C//DTD SVG 1.1//EN" "http://www.w3.org/Graphics/SVG/1.1/DTD/svg11.dtd">

<!-- Uploaded to: SVG Repo, www.svgrepo.com, Transformed by: SVG Repo Mixer Tools -->
<svg fill="#4E6BFF" height="50" width="50" version="1.1" id="Layer_1" xmlns="http://www.w3.org/2000/svg" xmlns:xlink="http://www.w3.org/1999/xlink" viewBox="0 0 508 508" xml:space="preserve" stroke="#4E6BFF">

<g id="SVGRepo_bgCarrier" stroke-width="0"/>

<g id="SVGRepo_tracerCarrier" stroke-linecap="round" stroke-linejoin="round"/>

<g id="SVGRepo_iconCarrier"> <g> <g> <path d="M500.6,269.437c-13.4-7.3-26.3-15-39-23c0.3-5.2,0.6-10.3,0.6-15.4c0-127.4-103.6-231-231-231 C103.7,0.038,0,103.738,0,231.137s103.7,231,231.1,231c24.3,0,48.1-3.8,70.8-11.1c25.5,22.5,58.7,43.5,77.7,54.9 c4.7,2.7,9.5,2.7,14.4,0c34.4-20.2,114-71.2,114-106.3v-117.8C508,276.738,505.2,271.937,500.6,269.437z M158.5,41.838 c-12.8,16.4-23.7,37.2-32.2,61.2H73.9C96.1,75.838,125.2,54.637,158.5,41.838z M54.6,131.238h63.1c-6.6,26.1-10.7,55-11.7,85.8 H28.8C30.9,186.038,40,156.937,54.6,131.238z M54.6,330.937c-14.6-25.6-23.7-54.7-25.8-85.7h77.3c1,30.7,5,59.6,11.6,85.7H54.6z M73.9,359.137h52.4c8.5,24,19.5,44.8,32.2,61.3C125.2,407.637,96.1,386.337,73.9,359.137z M217,431.738 c-24-7.7-45.5-34.5-60.5-72.5H217V431.738z M217,330.937h-69.9c-7.2-25.8-11.7-54.9-12.8-85.7H217V330.937z M217,217.038h-82.7 c1.1-30.8,5.6-60,12.8-85.8H217V217.038z M217,103.038h-60.5c15.1-38,36.5-64.8,60.5-72.5V103.038z M407.5,131.238 c14.6,25.6,23.7,54.7,25.9,85.8h-15.3c-7.4-5.5-14.8-11.1-21.9-16.8c-5.2-4.2-12.5-4.2-17.7,0c-7.1,5.7-14.4,11.3-21.9,16.8h-0.5 c-1-30.7-5-59.6-11.6-85.8H407.5z M388.2,103.038h-52.3c-8.5-24-19.5-44.8-32.2-61.3C337,54.538,366.1,75.838,388.2,103.038z M245.2,30.538c24,7.7,45.4,34.5,60.4,72.5h-60.4V30.538z M245.2,131.238H315c7.2,25.8,11.7,54.9,12.8,85.8h-82.6V131.238z M245.2,431.637v-72.4h21.5v40.4c0,4.9,1.6,10,4.3,15.4C264.1,421.837,255.4,428.238,245.2,431.637z M266.7,281.837v49.1h-21.5 v-85.7h69.9c-13.3,8.4-26.9,16.6-41,24.2C269.6,271.937,266.7,276.738,266.7,281.837z M479.8,399.637 c-0.5,11.9-43.1,47.4-92.8,77.8c-49.3-30.5-91.5-65.9-92-77.8v-109.4c32.9-18.3,63.9-38.8,92.4-61c28.5,22.2,59.6,42.7,92.4,61 V399.637z"/> </g> </g> <g> <g> <path d="M449.6,309.238c-5.5-5.5-14.4-5.5-20,0l-56.8,56.8l-27.7-27.7c-5.5-5.5-14.4-5.5-20,0c-5.5,5.5-5.5,14.4,0,20l37.7,37.7 c5.6,5.4,14.2,5.6,20,0l66.8-66.8C455.1,323.637,455.1,314.738,449.6,309.238z"/> </g> </g> </g>

</svg>